<svg id="Layer_1" data-name="Layer 1" xmlns="http://www.w3.org/2000/svg" viewBox="0 0 502 520"><defs><style>.cls-1{fill:#ffa000;}.cls-2{fill:#fae600;}.cls-3{fill:#ff3c00;}</style></defs><title>facebook_logdevice_fullcolormark</title><rect class="cls-1" x="10.09" y="204.34" width="481.82" height="103.86"/><path class="cls-2" d="M491.91,119.7c-42.53,37.18-105,41.59-160.7,32.4s-109.26-30-165.37-36.48S46.9,119.9,10.09,162.74V58.88C46.9,16,109.72,5.22,165.83,11.76S275.47,39,331.21,48.24,449.38,53,491.91,15.84Z"/><path class="cls-3" d="M491.91,467c-42.53,37.18-105,41.59-160.7,32.4s-109.26-30-165.37-36.48S46.9,467.15,10.09,510V406.14C46.9,363.29,109.72,352.48,165.83,359S275.47,386.3,331.21,395.5s118.17,4.78,160.7-32.4Z"/></svg>