<svg data-name="Layer 1" xmlns="http://www.w3.org/2000/svg" viewBox="0 0 502 520"><path fill="#ffa000" d="M10.09 204.34h481.82V308.2H10.09z"/><path d="M491.91 119.7c-42.53 37.18-105 41.59-160.7 32.4s-109.26-30-165.37-36.48S46.9 119.9 10.09 162.74V58.88C46.9 16 109.72 5.22 165.83 11.76S275.47 39 331.21 48.24s118.17 4.76 160.7-32.4z" fill="#fae600"/><path d="M491.91 467c-42.53 37.18-105 41.59-160.7 32.4s-109.26-30-165.37-36.48S46.9 467.15 10.09 510V406.14c36.81-42.85 99.63-53.66 155.74-47.14s109.64 27.3 165.38 36.5 118.17 4.78 160.7-32.4z" fill="#ff3c00"/></svg>